<mxfile host="app.diagrams.net" modified="2024-03-03T20:37:45.443Z" agent="Mozilla/5.0 (Windows NT 10.0; Win64; x64) AppleWebKit/537.36 (KHTML, like Gecko) Chrome/122.0.0.0 Safari/537.36 Edg/122.0.0.0" etag="wczsXcEHvgUKJyapDd0w" version="24.0.1" type="device">
  <diagram id="C5RBs43oDa-KdzZeNtuy" name="Page-1">
    <mxGraphModel dx="956" dy="547" grid="1" gridSize="10" guides="1" tooltips="1" connect="1" arrows="1" fold="1" page="1" pageScale="1" pageWidth="827" pageHeight="1169" math="0" shadow="0">
      <root>
        <mxCell id="WIyWlLk6GJQsqaUBKTNV-0" />
        <mxCell id="WIyWlLk6GJQsqaUBKTNV-1" parent="WIyWlLk6GJQsqaUBKTNV-0" />
        <mxCell id="BnX0GrNirEgehtm7crxo-5" value="MullardDuck" style="swimlane;fontStyle=0;childLayout=stackLayout;horizontal=1;startSize=26;fillColor=none;horizontalStack=0;resizeParent=1;resizeParentMax=0;resizeLast=0;collapsible=1;marginBottom=0;whiteSpace=wrap;html=1;" parent="WIyWlLk6GJQsqaUBKTNV-1" vertex="1">
          <mxGeometry x="20" y="670" width="140" height="52" as="geometry" />
        </mxCell>
        <mxCell id="BnX0GrNirEgehtm7crxo-8" value="+ MullardDuck()" style="text;strokeColor=none;fillColor=none;align=left;verticalAlign=top;spacingLeft=4;spacingRight=4;overflow=hidden;rotatable=0;points=[[0,0.5],[1,0.5]];portConstraint=eastwest;whiteSpace=wrap;html=1;" parent="BnX0GrNirEgehtm7crxo-5" vertex="1">
          <mxGeometry y="26" width="140" height="26" as="geometry" />
        </mxCell>
        <mxCell id="BnX0GrNirEgehtm7crxo-53" style="edgeStyle=orthogonalEdgeStyle;rounded=0;orthogonalLoop=1;jettySize=auto;html=1;exitX=0;exitY=0.75;exitDx=0;exitDy=0;entryX=0.149;entryY=-0.012;entryDx=0;entryDy=0;entryPerimeter=0;endArrow=none;endFill=0;endSize=12;startArrow=block;startFill=0;startSize=12;" parent="WIyWlLk6GJQsqaUBKTNV-1" source="BnX0GrNirEgehtm7crxo-9" target="BnX0GrNirEgehtm7crxo-5" edge="1">
          <mxGeometry relative="1" as="geometry">
            <mxPoint x="90" y="720" as="targetPoint" />
          </mxGeometry>
        </mxCell>
        <mxCell id="cY1Zp5Vu9_IEIUyPZJ74-6" style="edgeStyle=orthogonalEdgeStyle;rounded=0;orthogonalLoop=1;jettySize=auto;html=1;exitX=0.897;exitY=0.993;exitDx=0;exitDy=0;entryX=0.5;entryY=0;entryDx=0;entryDy=0;exitPerimeter=0;endSize=12;endArrow=none;endFill=0;startArrow=diamondThin;startFill=1;startSize=12;" edge="1" parent="WIyWlLk6GJQsqaUBKTNV-1" source="BnX0GrNirEgehtm7crxo-9" target="BnX0GrNirEgehtm7crxo-22">
          <mxGeometry relative="1" as="geometry" />
        </mxCell>
        <mxCell id="BnX0GrNirEgehtm7crxo-9" value="&lt;p style=&quot;margin:0px;margin-top:4px;text-align:center;&quot;&gt;&lt;b&gt;Abstract Class Duck&lt;/b&gt;&lt;/p&gt;&lt;hr size=&quot;1&quot;&gt;&lt;p style=&quot;margin:0px;margin-left:4px;&quot;&gt;+ quackBehaviour: QuackBehaviour&lt;/p&gt;&lt;p style=&quot;margin:0px;margin-left:4px;&quot;&gt;+ flyBehaviour: FlyBehaviour&lt;/p&gt;&lt;hr size=&quot;1&quot;&gt;&lt;p style=&quot;margin:0px;margin-left:4px;&quot;&gt;&lt;span style=&quot;background-color: initial;&quot;&gt;+ set, get FlyBehaviour&lt;/span&gt;&lt;br&gt;&lt;/p&gt;&lt;p style=&quot;margin:0px;margin-left:4px;&quot;&gt;+ set, get QuackBehaviour&lt;/p&gt;&lt;p style=&quot;margin:0px;margin-left:4px;&quot;&gt;+ doQuack()&lt;/p&gt;&lt;p style=&quot;margin:0px;margin-left:4px;&quot;&gt;+ doFly()&lt;/p&gt;" style="verticalAlign=top;align=left;overflow=fill;html=1;whiteSpace=wrap;" parent="WIyWlLk6GJQsqaUBKTNV-1" vertex="1">
          <mxGeometry x="175" y="190" width="250" height="140" as="geometry" />
        </mxCell>
        <mxCell id="BnX0GrNirEgehtm7crxo-10" value="RubberDuck" style="swimlane;fontStyle=0;childLayout=stackLayout;horizontal=1;startSize=26;fillColor=none;horizontalStack=0;resizeParent=1;resizeParentMax=0;resizeLast=0;collapsible=1;marginBottom=0;whiteSpace=wrap;html=1;" parent="WIyWlLk6GJQsqaUBKTNV-1" vertex="1">
          <mxGeometry x="273" y="670" width="140" height="52" as="geometry" />
        </mxCell>
        <mxCell id="BnX0GrNirEgehtm7crxo-11" value="+ RubberDuck()" style="text;strokeColor=none;fillColor=none;align=left;verticalAlign=top;spacingLeft=4;spacingRight=4;overflow=hidden;rotatable=0;points=[[0,0.5],[1,0.5]];portConstraint=eastwest;whiteSpace=wrap;html=1;" parent="BnX0GrNirEgehtm7crxo-10" vertex="1">
          <mxGeometry y="26" width="140" height="26" as="geometry" />
        </mxCell>
        <mxCell id="cY1Zp5Vu9_IEIUyPZJ74-4" style="edgeStyle=orthogonalEdgeStyle;rounded=0;orthogonalLoop=1;jettySize=auto;html=1;exitX=1.002;exitY=0.192;exitDx=0;exitDy=0;entryX=1;entryY=0.75;entryDx=0;entryDy=0;endArrow=block;endFill=0;startSize=12;endSize=12;exitPerimeter=0;" edge="1" parent="WIyWlLk6GJQsqaUBKTNV-1" source="BnX0GrNirEgehtm7crxo-15" target="BnX0GrNirEgehtm7crxo-9">
          <mxGeometry relative="1" as="geometry">
            <Array as="points">
              <mxPoint x="760" y="680" />
              <mxPoint x="760" y="295" />
            </Array>
          </mxGeometry>
        </mxCell>
        <mxCell id="BnX0GrNirEgehtm7crxo-15" value="RedHeadDuck" style="swimlane;fontStyle=0;childLayout=stackLayout;horizontal=1;startSize=26;fillColor=none;horizontalStack=0;resizeParent=1;resizeParentMax=0;resizeLast=0;collapsible=1;marginBottom=0;whiteSpace=wrap;html=1;" parent="WIyWlLk6GJQsqaUBKTNV-1" vertex="1">
          <mxGeometry x="570" y="670" width="140" height="52" as="geometry" />
        </mxCell>
        <mxCell id="BnX0GrNirEgehtm7crxo-16" value="+ RedHeadDuck()" style="text;strokeColor=none;fillColor=none;align=left;verticalAlign=top;spacingLeft=4;spacingRight=4;overflow=hidden;rotatable=0;points=[[0,0.5],[1,0.5]];portConstraint=eastwest;whiteSpace=wrap;html=1;" parent="BnX0GrNirEgehtm7crxo-15" vertex="1">
          <mxGeometry y="26" width="140" height="26" as="geometry" />
        </mxCell>
        <mxCell id="BnX0GrNirEgehtm7crxo-21" value="&lt;p style=&quot;margin:0px;margin-top:4px;text-align:center;&quot;&gt;&lt;i&gt;&amp;lt;&amp;lt;Interface&amp;gt;&amp;gt;&lt;/i&gt;&lt;br&gt;&lt;b&gt;FlyBehaviour&lt;/b&gt;&lt;/p&gt;&lt;hr size=&quot;1&quot;&gt;&lt;p style=&quot;margin:0px;margin-left:4px;&quot;&gt;&lt;span style=&quot;background-color: initial;&quot;&gt;+ fly(): void&lt;/span&gt;&lt;/p&gt;" style="verticalAlign=top;align=left;overflow=fill;html=1;whiteSpace=wrap;" parent="WIyWlLk6GJQsqaUBKTNV-1" vertex="1">
          <mxGeometry x="92.5" y="420" width="190" height="70" as="geometry" />
        </mxCell>
        <mxCell id="BnX0GrNirEgehtm7crxo-22" value="&lt;p style=&quot;margin:0px;margin-top:4px;text-align:center;&quot;&gt;&lt;i&gt;&amp;lt;&amp;lt;Interface&amp;gt;&amp;gt;&lt;/i&gt;&lt;br&gt;&lt;b&gt;QuackBehavior&lt;/b&gt;&lt;/p&gt;&lt;hr size=&quot;1&quot;&gt;&lt;p style=&quot;margin:0px;margin-left:4px;&quot;&gt;&lt;span style=&quot;background-color: initial;&quot;&gt;+ quack(): void&lt;/span&gt;&lt;/p&gt;" style="verticalAlign=top;align=left;overflow=fill;html=1;whiteSpace=wrap;" parent="WIyWlLk6GJQsqaUBKTNV-1" vertex="1">
          <mxGeometry x="400" y="420" width="190" height="70" as="geometry" />
        </mxCell>
        <mxCell id="BnX0GrNirEgehtm7crxo-26" value="JustFly" style="swimlane;fontStyle=0;childLayout=stackLayout;horizontal=1;startSize=26;fillColor=none;horizontalStack=0;resizeParent=1;resizeParentMax=0;resizeLast=0;collapsible=1;marginBottom=0;whiteSpace=wrap;html=1;" parent="WIyWlLk6GJQsqaUBKTNV-1" vertex="1">
          <mxGeometry x="75" y="550" width="100" height="90" as="geometry" />
        </mxCell>
        <mxCell id="BnX0GrNirEgehtm7crxo-28" value="+ fly(){&lt;div&gt;// flying&lt;/div&gt;&lt;div&gt;}&lt;/div&gt;" style="text;strokeColor=none;fillColor=none;align=left;verticalAlign=top;spacingLeft=4;spacingRight=4;overflow=hidden;rotatable=0;points=[[0,0.5],[1,0.5]];portConstraint=eastwest;whiteSpace=wrap;html=1;" parent="BnX0GrNirEgehtm7crxo-26" vertex="1">
          <mxGeometry y="26" width="100" height="64" as="geometry" />
        </mxCell>
        <mxCell id="BnX0GrNirEgehtm7crxo-30" value="FlyNoWay" style="swimlane;fontStyle=0;childLayout=stackLayout;horizontal=1;startSize=26;fillColor=none;horizontalStack=0;resizeParent=1;resizeParentMax=0;resizeLast=0;collapsible=1;marginBottom=0;whiteSpace=wrap;html=1;" parent="WIyWlLk6GJQsqaUBKTNV-1" vertex="1">
          <mxGeometry x="220" y="550" width="105" height="90" as="geometry" />
        </mxCell>
        <mxCell id="BnX0GrNirEgehtm7crxo-32" value="+ fly(){&lt;div&gt;// can&#39;t fly&lt;/div&gt;&lt;div&gt;}&lt;/div&gt;" style="text;strokeColor=none;fillColor=none;align=left;verticalAlign=top;spacingLeft=4;spacingRight=4;overflow=hidden;rotatable=0;points=[[0,0.5],[1,0.5]];portConstraint=eastwest;whiteSpace=wrap;html=1;" parent="BnX0GrNirEgehtm7crxo-30" vertex="1">
          <mxGeometry y="26" width="105" height="64" as="geometry" />
        </mxCell>
        <mxCell id="BnX0GrNirEgehtm7crxo-34" value="MuteQuack" style="swimlane;fontStyle=0;childLayout=stackLayout;horizontal=1;startSize=26;fillColor=none;horizontalStack=0;resizeParent=1;resizeParentMax=0;resizeLast=0;collapsible=1;marginBottom=0;whiteSpace=wrap;html=1;" parent="WIyWlLk6GJQsqaUBKTNV-1" vertex="1">
          <mxGeometry x="364" y="550" width="100" height="90" as="geometry" />
        </mxCell>
        <mxCell id="BnX0GrNirEgehtm7crxo-37" value="+ quack() {&lt;div&gt;//muted quack&lt;/div&gt;&lt;div&gt;}&lt;/div&gt;" style="text;strokeColor=none;fillColor=none;align=left;verticalAlign=top;spacingLeft=4;spacingRight=4;overflow=hidden;rotatable=0;points=[[0,0.5],[1,0.5]];portConstraint=eastwest;whiteSpace=wrap;html=1;" parent="BnX0GrNirEgehtm7crxo-34" vertex="1">
          <mxGeometry y="26" width="100" height="64" as="geometry" />
        </mxCell>
        <mxCell id="BnX0GrNirEgehtm7crxo-38" value="Quack" style="swimlane;fontStyle=0;childLayout=stackLayout;horizontal=1;startSize=26;fillColor=none;horizontalStack=0;resizeParent=1;resizeParentMax=0;resizeLast=0;collapsible=1;marginBottom=0;whiteSpace=wrap;html=1;" parent="WIyWlLk6GJQsqaUBKTNV-1" vertex="1">
          <mxGeometry x="480" y="550" width="110" height="90" as="geometry" />
        </mxCell>
        <mxCell id="BnX0GrNirEgehtm7crxo-41" value="+ quack() {&lt;div&gt;//quacking&lt;/div&gt;&lt;div&gt;}&lt;/div&gt;" style="text;strokeColor=none;fillColor=none;align=left;verticalAlign=top;spacingLeft=4;spacingRight=4;overflow=hidden;rotatable=0;points=[[0,0.5],[1,0.5]];portConstraint=eastwest;whiteSpace=wrap;html=1;" parent="BnX0GrNirEgehtm7crxo-38" vertex="1">
          <mxGeometry y="26" width="110" height="64" as="geometry" />
        </mxCell>
        <mxCell id="BnX0GrNirEgehtm7crxo-42" value="Squeak" style="swimlane;fontStyle=0;childLayout=stackLayout;horizontal=1;startSize=26;fillColor=none;horizontalStack=0;resizeParent=1;resizeParentMax=0;resizeLast=0;collapsible=1;marginBottom=0;whiteSpace=wrap;html=1;" parent="WIyWlLk6GJQsqaUBKTNV-1" vertex="1">
          <mxGeometry x="610" y="550" width="110" height="90" as="geometry" />
        </mxCell>
        <mxCell id="BnX0GrNirEgehtm7crxo-44" value="+ quack() {&lt;div&gt;//squeaking&lt;/div&gt;&lt;div&gt;}&lt;/div&gt;" style="text;strokeColor=none;fillColor=none;align=left;verticalAlign=top;spacingLeft=4;spacingRight=4;overflow=hidden;rotatable=0;points=[[0,0.5],[1,0.5]];portConstraint=eastwest;whiteSpace=wrap;html=1;" parent="BnX0GrNirEgehtm7crxo-42" vertex="1">
          <mxGeometry y="26" width="110" height="64" as="geometry" />
        </mxCell>
        <mxCell id="BnX0GrNirEgehtm7crxo-46" style="edgeStyle=orthogonalEdgeStyle;rounded=0;orthogonalLoop=1;jettySize=auto;html=1;exitX=0.75;exitY=0;exitDx=0;exitDy=0;dashed=1;endArrow=block;endFill=0;startArrow=none;startFill=0;startSize=11;endSize=12;" parent="WIyWlLk6GJQsqaUBKTNV-1" edge="1">
          <mxGeometry relative="1" as="geometry">
            <mxPoint x="140" y="550" as="sourcePoint" />
            <mxPoint x="140.38" y="490" as="targetPoint" />
          </mxGeometry>
        </mxCell>
        <mxCell id="BnX0GrNirEgehtm7crxo-47" style="edgeStyle=orthogonalEdgeStyle;rounded=0;orthogonalLoop=1;jettySize=auto;html=1;exitX=0.75;exitY=0;exitDx=0;exitDy=0;dashed=1;endArrow=block;endFill=0;startArrow=none;startFill=0;endSize=12;" parent="WIyWlLk6GJQsqaUBKTNV-1" edge="1">
          <mxGeometry relative="1" as="geometry">
            <mxPoint x="270.28" y="550" as="sourcePoint" />
            <mxPoint x="270" y="490" as="targetPoint" />
            <Array as="points">
              <mxPoint x="270" y="521" />
              <mxPoint x="270" y="521" />
            </Array>
          </mxGeometry>
        </mxCell>
        <mxCell id="BnX0GrNirEgehtm7crxo-48" style="edgeStyle=orthogonalEdgeStyle;rounded=0;orthogonalLoop=1;jettySize=auto;html=1;exitX=0.75;exitY=0;exitDx=0;exitDy=0;entryX=0.133;entryY=1.014;entryDx=0;entryDy=0;entryPerimeter=0;dashed=1;endArrow=block;endFill=0;startArrow=none;startFill=0;endSize=12;strokeColor=default;" parent="WIyWlLk6GJQsqaUBKTNV-1" target="BnX0GrNirEgehtm7crxo-22" edge="1">
          <mxGeometry relative="1" as="geometry">
            <mxPoint x="425" y="550" as="sourcePoint" />
            <mxPoint x="425" y="480" as="targetPoint" />
          </mxGeometry>
        </mxCell>
        <mxCell id="BnX0GrNirEgehtm7crxo-49" style="edgeStyle=orthogonalEdgeStyle;rounded=0;orthogonalLoop=1;jettySize=auto;html=1;exitX=0.75;exitY=0;exitDx=0;exitDy=0;entryX=0.133;entryY=1.014;entryDx=0;entryDy=0;entryPerimeter=0;dashed=1;endArrow=block;endFill=0;startArrow=none;startFill=0;endSize=12;" parent="WIyWlLk6GJQsqaUBKTNV-1" edge="1">
          <mxGeometry relative="1" as="geometry">
            <mxPoint x="534.77" y="549" as="sourcePoint" />
            <mxPoint x="534.77" y="490" as="targetPoint" />
          </mxGeometry>
        </mxCell>
        <mxCell id="BnX0GrNirEgehtm7crxo-50" style="edgeStyle=orthogonalEdgeStyle;rounded=0;orthogonalLoop=1;jettySize=auto;html=1;exitX=1.001;exitY=0.929;exitDx=0;exitDy=0;entryX=0.265;entryY=0.007;entryDx=0;entryDy=0;entryPerimeter=0;exitPerimeter=0;dashed=1;endArrow=none;endFill=0;startArrow=block;startFill=0;endSize=12;startSize=12;" parent="WIyWlLk6GJQsqaUBKTNV-1" source="BnX0GrNirEgehtm7crxo-22" target="BnX0GrNirEgehtm7crxo-42" edge="1">
          <mxGeometry relative="1" as="geometry">
            <Array as="points">
              <mxPoint x="639" y="485" />
            </Array>
          </mxGeometry>
        </mxCell>
        <mxCell id="BnX0GrNirEgehtm7crxo-55" style="edgeStyle=orthogonalEdgeStyle;rounded=0;orthogonalLoop=1;jettySize=auto;html=1;endArrow=none;endFill=0;endSize=12;startArrow=block;startFill=0;startSize=12;exitX=0.66;exitY=1.01;exitDx=0;exitDy=0;exitPerimeter=0;" parent="WIyWlLk6GJQsqaUBKTNV-1" edge="1" source="BnX0GrNirEgehtm7crxo-9">
          <mxGeometry relative="1" as="geometry">
            <mxPoint x="340" y="350" as="sourcePoint" />
            <mxPoint x="340" y="671" as="targetPoint" />
            <Array as="points">
              <mxPoint x="340" y="670" />
            </Array>
          </mxGeometry>
        </mxCell>
        <mxCell id="cY1Zp5Vu9_IEIUyPZJ74-3" style="edgeStyle=orthogonalEdgeStyle;rounded=0;orthogonalLoop=1;jettySize=auto;html=1;exitX=0.25;exitY=1;exitDx=0;exitDy=0;entryX=0.767;entryY=0.009;entryDx=0;entryDy=0;entryPerimeter=0;endArrow=none;endFill=0;endSize=12;startArrow=diamondThin;startFill=1;startSize=12;" edge="1" parent="WIyWlLk6GJQsqaUBKTNV-1" source="BnX0GrNirEgehtm7crxo-9" target="BnX0GrNirEgehtm7crxo-21">
          <mxGeometry relative="1" as="geometry" />
        </mxCell>
      </root>
    </mxGraphModel>
  </diagram>
</mxfile>
